<mxfile host="app.diagrams.net" modified="2023-05-12T17:53:00.165Z" agent="Mozilla/5.0 (Windows NT 10.0; Win64; x64) AppleWebKit/537.36 (KHTML, like Gecko) Chrome/113.0.0.0 Safari/537.36" etag="JJKYwqGxk0LnQ_QlXdtF" version="21.2.9" type="device">
  <diagram name="PÃ¡gina-1" id="IVT-08o5lseGQfcAcOu9">
    <mxGraphModel dx="1760" dy="1795" grid="1" gridSize="10" guides="1" tooltips="1" connect="1" arrows="1" fold="1" page="1" pageScale="1" pageWidth="1169" pageHeight="827" math="0" shadow="0">
      <root>
        <mxCell id="0" />
        <mxCell id="1" parent="0" />
        <mxCell id="y0vOlBpQjnAaVYigsWgY-1" value="ESCOLA" style="swimlane;childLayout=stackLayout;horizontal=1;startSize=50;horizontalStack=0;rounded=1;fontSize=14;fontStyle=0;strokeWidth=2;resizeParent=0;resizeLast=1;shadow=0;dashed=0;align=center;arcSize=4;whiteSpace=wrap;html=1;" vertex="1" parent="1">
          <mxGeometry x="780" y="-668" width="130" height="140" as="geometry" />
        </mxCell>
        <mxCell id="y0vOlBpQjnAaVYigsWgY-2" value="cnpj PK&lt;br&gt;nome&lt;br&gt;cidade&lt;br&gt;estado&lt;br&gt;cod_cidade FK" style="align=left;strokeColor=none;fillColor=none;spacingLeft=4;fontSize=12;verticalAlign=top;resizable=0;rotatable=0;part=1;html=1;" vertex="1" parent="y0vOlBpQjnAaVYigsWgY-1">
          <mxGeometry y="50" width="130" height="90" as="geometry" />
        </mxCell>
        <mxCell id="y0vOlBpQjnAaVYigsWgY-3" value="SETOR" style="swimlane;childLayout=stackLayout;horizontal=1;startSize=50;horizontalStack=0;rounded=1;fontSize=14;fontStyle=0;strokeWidth=2;resizeParent=0;resizeLast=1;shadow=0;dashed=0;align=center;arcSize=4;whiteSpace=wrap;html=1;" vertex="1" parent="1">
          <mxGeometry x="490" y="-668" width="130" height="140" as="geometry" />
        </mxCell>
        <mxCell id="y0vOlBpQjnAaVYigsWgY-4" value="codigo PK&lt;br&gt;nome&amp;nbsp;&lt;br&gt;gerente&amp;nbsp;&lt;br&gt;telefone&lt;br&gt;cnpj_escola FK" style="align=left;strokeColor=none;fillColor=none;spacingLeft=4;fontSize=12;verticalAlign=top;resizable=0;rotatable=0;part=1;html=1;" vertex="1" parent="y0vOlBpQjnAaVYigsWgY-3">
          <mxGeometry y="50" width="130" height="90" as="geometry" />
        </mxCell>
        <mxCell id="y0vOlBpQjnAaVYigsWgY-5" value="CURSO" style="swimlane;childLayout=stackLayout;horizontal=1;startSize=50;horizontalStack=0;rounded=1;fontSize=14;fontStyle=0;strokeWidth=2;resizeParent=0;resizeLast=1;shadow=0;dashed=0;align=center;arcSize=4;whiteSpace=wrap;html=1;" vertex="1" parent="1">
          <mxGeometry x="260" y="-298" width="130" height="140" as="geometry" />
        </mxCell>
        <mxCell id="y0vOlBpQjnAaVYigsWgY-6" value="codigo PK&lt;br&gt;nome&lt;br&gt;coordenador&lt;br&gt;sala&lt;br&gt;telefone" style="align=left;strokeColor=none;fillColor=none;spacingLeft=4;fontSize=12;verticalAlign=top;resizable=0;rotatable=0;part=1;html=1;" vertex="1" parent="y0vOlBpQjnAaVYigsWgY-5">
          <mxGeometry y="50" width="130" height="90" as="geometry" />
        </mxCell>
        <mxCell id="y0vOlBpQjnAaVYigsWgY-7" value="PROFESSOR" style="swimlane;childLayout=stackLayout;horizontal=1;startSize=50;horizontalStack=0;rounded=1;fontSize=14;fontStyle=0;strokeWidth=2;resizeParent=0;resizeLast=1;shadow=0;dashed=0;align=center;arcSize=4;whiteSpace=wrap;html=1;" vertex="1" parent="1">
          <mxGeometry x="490" y="-396" width="130" height="158" as="geometry" />
        </mxCell>
        <mxCell id="y0vOlBpQjnAaVYigsWgY-8" value="codigo PK&lt;br&gt;nome&lt;br&gt;codigo_setor&lt;br&gt;cnpj_escola FK&lt;br&gt;codigo_disciplina FK&lt;br&gt;cod_cidade FK" style="align=left;strokeColor=none;fillColor=none;spacingLeft=4;fontSize=12;verticalAlign=top;resizable=0;rotatable=0;part=1;html=1;" vertex="1" parent="y0vOlBpQjnAaVYigsWgY-7">
          <mxGeometry y="50" width="130" height="108" as="geometry" />
        </mxCell>
        <mxCell id="y0vOlBpQjnAaVYigsWgY-9" value="DISCIPLINA" style="swimlane;childLayout=stackLayout;horizontal=1;startSize=50;horizontalStack=0;rounded=1;fontSize=14;fontStyle=0;strokeWidth=2;resizeParent=0;resizeLast=1;shadow=0;dashed=0;align=center;arcSize=4;whiteSpace=wrap;html=1;" vertex="1" parent="1">
          <mxGeometry x="260" y="-478" width="130" height="150" as="geometry" />
        </mxCell>
        <mxCell id="y0vOlBpQjnAaVYigsWgY-10" value="codigo PK&lt;br&gt;nome&amp;nbsp;&lt;br&gt;numero_horas&lt;br&gt;emente&lt;br&gt;codigo_professor&lt;br&gt;codigo_curso" style="align=left;strokeColor=none;fillColor=none;spacingLeft=4;fontSize=12;verticalAlign=top;resizable=0;rotatable=0;part=1;html=1;" vertex="1" parent="y0vOlBpQjnAaVYigsWgY-9">
          <mxGeometry y="50" width="130" height="100" as="geometry" />
        </mxCell>
        <mxCell id="y0vOlBpQjnAaVYigsWgY-14" value="" style="endArrow=none;html=1;rounded=0;" edge="1" parent="1">
          <mxGeometry relative="1" as="geometry">
            <mxPoint x="554.5" y="-528" as="sourcePoint" />
            <mxPoint x="555" y="-398" as="targetPoint" />
          </mxGeometry>
        </mxCell>
        <mxCell id="y0vOlBpQjnAaVYigsWgY-15" value="1" style="resizable=0;html=1;whiteSpace=wrap;align=left;verticalAlign=bottom;" connectable="0" vertex="1" parent="y0vOlBpQjnAaVYigsWgY-14">
          <mxGeometry x="-1" relative="1" as="geometry">
            <mxPoint x="3" y="21" as="offset" />
          </mxGeometry>
        </mxCell>
        <mxCell id="y0vOlBpQjnAaVYigsWgY-16" value="N" style="resizable=0;html=1;whiteSpace=wrap;align=right;verticalAlign=bottom;" connectable="0" vertex="1" parent="y0vOlBpQjnAaVYigsWgY-14">
          <mxGeometry x="1" relative="1" as="geometry">
            <mxPoint x="14" as="offset" />
          </mxGeometry>
        </mxCell>
        <mxCell id="y0vOlBpQjnAaVYigsWgY-29" value="ESCOLA" style="swimlane;childLayout=stackLayout;horizontal=1;startSize=50;horizontalStack=0;rounded=1;fontSize=14;fontStyle=0;strokeWidth=2;resizeParent=0;resizeLast=1;shadow=0;dashed=0;align=center;arcSize=4;whiteSpace=wrap;html=1;" vertex="1" parent="1">
          <mxGeometry x="780" y="-396" width="130" height="140" as="geometry" />
        </mxCell>
        <mxCell id="y0vOlBpQjnAaVYigsWgY-30" value="cnpj PK&lt;br&gt;nome&lt;br&gt;cidade&lt;br&gt;estado&lt;br&gt;telefone" style="align=left;strokeColor=none;fillColor=none;spacingLeft=4;fontSize=12;verticalAlign=top;resizable=0;rotatable=0;part=1;html=1;" vertex="1" parent="y0vOlBpQjnAaVYigsWgY-29">
          <mxGeometry y="50" width="130" height="90" as="geometry" />
        </mxCell>
        <mxCell id="y0vOlBpQjnAaVYigsWgY-31" value="" style="endArrow=none;html=1;rounded=0;entryX=-0.023;entryY=0.344;entryDx=0;entryDy=0;entryPerimeter=0;exitX=1.015;exitY=0.344;exitDx=0;exitDy=0;exitPerimeter=0;" edge="1" parent="1" source="y0vOlBpQjnAaVYigsWgY-4" target="y0vOlBpQjnAaVYigsWgY-2">
          <mxGeometry relative="1" as="geometry">
            <mxPoint x="660" y="-658" as="sourcePoint" />
            <mxPoint x="660.5" y="-528" as="targetPoint" />
          </mxGeometry>
        </mxCell>
        <mxCell id="y0vOlBpQjnAaVYigsWgY-32" value="1" style="resizable=0;html=1;whiteSpace=wrap;align=left;verticalAlign=bottom;" connectable="0" vertex="1" parent="y0vOlBpQjnAaVYigsWgY-31">
          <mxGeometry x="-1" relative="1" as="geometry">
            <mxPoint x="138" y="21" as="offset" />
          </mxGeometry>
        </mxCell>
        <mxCell id="y0vOlBpQjnAaVYigsWgY-33" value="N" style="resizable=0;html=1;whiteSpace=wrap;align=right;verticalAlign=bottom;" connectable="0" vertex="1" parent="y0vOlBpQjnAaVYigsWgY-31">
          <mxGeometry x="1" relative="1" as="geometry">
            <mxPoint x="-140" y="22" as="offset" />
          </mxGeometry>
        </mxCell>
        <mxCell id="y0vOlBpQjnAaVYigsWgY-34" value="" style="endArrow=none;html=1;rounded=0;" edge="1" parent="1">
          <mxGeometry relative="1" as="geometry">
            <mxPoint x="844.5" y="-528" as="sourcePoint" />
            <mxPoint x="845" y="-398" as="targetPoint" />
          </mxGeometry>
        </mxCell>
        <mxCell id="y0vOlBpQjnAaVYigsWgY-35" value="1" style="resizable=0;html=1;whiteSpace=wrap;align=left;verticalAlign=bottom;" connectable="0" vertex="1" parent="y0vOlBpQjnAaVYigsWgY-34">
          <mxGeometry x="-1" relative="1" as="geometry">
            <mxPoint x="6" y="127" as="offset" />
          </mxGeometry>
        </mxCell>
        <mxCell id="y0vOlBpQjnAaVYigsWgY-36" value="N" style="resizable=0;html=1;whiteSpace=wrap;align=right;verticalAlign=bottom;" connectable="0" vertex="1" parent="y0vOlBpQjnAaVYigsWgY-34">
          <mxGeometry x="1" relative="1" as="geometry">
            <mxPoint x="14" y="-110" as="offset" />
          </mxGeometry>
        </mxCell>
        <mxCell id="y0vOlBpQjnAaVYigsWgY-37" value="" style="endArrow=none;html=1;rounded=0;entryX=-0.023;entryY=0.344;entryDx=0;entryDy=0;entryPerimeter=0;exitX=0.985;exitY=0.167;exitDx=0;exitDy=0;exitPerimeter=0;" edge="1" parent="1" source="y0vOlBpQjnAaVYigsWgY-8">
          <mxGeometry relative="1" as="geometry">
            <mxPoint x="625" y="-328" as="sourcePoint" />
            <mxPoint x="780" y="-328" as="targetPoint" />
          </mxGeometry>
        </mxCell>
        <mxCell id="y0vOlBpQjnAaVYigsWgY-38" value="1" style="resizable=0;html=1;whiteSpace=wrap;align=left;verticalAlign=bottom;" connectable="0" vertex="1" parent="y0vOlBpQjnAaVYigsWgY-37">
          <mxGeometry x="-1" relative="1" as="geometry">
            <mxPoint x="140" y="21" as="offset" />
          </mxGeometry>
        </mxCell>
        <mxCell id="y0vOlBpQjnAaVYigsWgY-39" value="N" style="resizable=0;html=1;whiteSpace=wrap;align=right;verticalAlign=bottom;" connectable="0" vertex="1" parent="y0vOlBpQjnAaVYigsWgY-37">
          <mxGeometry x="1" relative="1" as="geometry">
            <mxPoint x="-144" y="17" as="offset" />
          </mxGeometry>
        </mxCell>
        <mxCell id="y0vOlBpQjnAaVYigsWgY-40" value="" style="endArrow=none;html=1;rounded=0;exitX=1;exitY=0.25;exitDx=0;exitDy=0;" edge="1" parent="1" source="y0vOlBpQjnAaVYigsWgY-10">
          <mxGeometry relative="1" as="geometry">
            <mxPoint x="320" y="-368" as="sourcePoint" />
            <mxPoint x="490" y="-338" as="targetPoint" />
          </mxGeometry>
        </mxCell>
        <mxCell id="y0vOlBpQjnAaVYigsWgY-42" value="N" style="resizable=0;html=1;whiteSpace=wrap;align=right;verticalAlign=bottom;" connectable="0" vertex="1" parent="y0vOlBpQjnAaVYigsWgY-40">
          <mxGeometry x="1" relative="1" as="geometry">
            <mxPoint x="-85" y="-65" as="offset" />
          </mxGeometry>
        </mxCell>
        <mxCell id="y0vOlBpQjnAaVYigsWgY-43" value="N" style="resizable=0;html=1;whiteSpace=wrap;align=right;verticalAlign=bottom;" connectable="0" vertex="1" parent="1">
          <mxGeometry x="441.0047903397758" y="-378.9963862791458" as="geometry">
            <mxPoint x="44" y="28" as="offset" />
          </mxGeometry>
        </mxCell>
        <mxCell id="y0vOlBpQjnAaVYigsWgY-44" value="" style="endArrow=none;html=1;rounded=0;exitX=1;exitY=0.25;exitDx=0;exitDy=0;" edge="1" parent="1">
          <mxGeometry relative="1" as="geometry">
            <mxPoint x="390" y="-228" as="sourcePoint" />
            <mxPoint x="490" y="-328" as="targetPoint" />
          </mxGeometry>
        </mxCell>
        <mxCell id="y0vOlBpQjnAaVYigsWgY-45" value="N" style="resizable=0;html=1;whiteSpace=wrap;align=right;verticalAlign=bottom;" connectable="0" vertex="1" parent="y0vOlBpQjnAaVYigsWgY-44">
          <mxGeometry x="1" relative="1" as="geometry">
            <mxPoint x="-85" y="120" as="offset" />
          </mxGeometry>
        </mxCell>
        <mxCell id="y0vOlBpQjnAaVYigsWgY-46" value="N" style="resizable=0;html=1;whiteSpace=wrap;align=right;verticalAlign=bottom;" connectable="0" vertex="1" parent="1">
          <mxGeometry x="356" y="-288" width="130" as="geometry" />
        </mxCell>
      </root>
    </mxGraphModel>
  </diagram>
</mxfile>
